<?xml version="1.0" standalone="no"?>
<!DOCTYPE svg PUBLIC "-//W3C//DTD SVG 20010904//EN"
 "http://www.w3.org/TR/2001/REC-SVG-20010904/DTD/svg10.dtd">
<svg version="1.0" xmlns="http://www.w3.org/2000/svg"
 width="2934.000000pt" height="1550.000000pt" viewBox="0 0 2934.000000 1550.000000"
 preserveAspectRatio="xMidYMid meet">

<g transform="translate(0.000000,1550.000000) scale(0.100000,-0.100000)"
fill="#000000" stroke="none">
<path d="M20215 15485 c-298 -55 -551 -285 -636 -577 -26 -92 -37 -304 -20
-404 54 -305 272 -549 576 -640 80 -24 106 -27 240 -27 174 0 252 16 381 81
210 106 365 288 436 512 20 66 23 94 22 240 0 157 -2 169 -31 258 -45 134
-100 222 -207 327 -102 100 -195 159 -317 199 -138 46 -302 58 -444 31z"/>
<path d="M5355 15180 c-1035 -75 -1903 -345 -2689 -837 -661 -414 -1265 -1004
-1704 -1663 -701 -1054 -1026 -2364 -952 -3841 71 -1429 498 -2575 1309 -3519
116 -135 427 -443 556 -551 315 -264 619 -462 980 -639 490 -240 975 -389
1550 -474 341 -50 496 -60 975 -61 517 0 734 14 1175 76 860 120 1729 408
2483 822 l92 51 0 2543 0 2543 -1887 -2 -1888 -3 0 -590 0 -590 1228 -3 1227
-2 0 -1574 0 -1574 -77 -40 c-690 -357 -1587 -525 -2519 -472 -624 36 -1157
168 -1649 410 -387 190 -680 404 -993 724 -177 182 -288 318 -431 531 -416
621 -651 1342 -737 2265 -23 236 -26 940 -6 1160 91 997 386 1812 907 2500
634 837 1482 1367 2485 1554 293 55 546 76 908 76 869 0 1625 -136 2347 -423
204 -80 552 -251 728 -357 64 -38 119 -70 122 -70 3 0 5 326 5 725 l0 726 -77
35 c-635 291 -1347 458 -2288 535 -166 14 -1022 20 -1180 9z"/>
<path d="M14130 11973 c-154 -10 -320 -26 -418 -39 -397 -51 -845 -168 -1210
-315 -169 -68 -478 -222 -627 -312 l-120 -72 -3 -659 -2 -659 32 27 c670 543
1299 821 2108 931 159 22 566 31 710 16 386 -40 676 -167 910 -401 253 -252
411 -621 475 -1110 17 -129 40 -508 32 -516 -3 -3 -180 -30 -394 -60 -213 -30
-577 -81 -808 -114 -231 -33 -584 -82 -785 -110 -201 -28 -436 -62 -524 -76
-1409 -221 -2225 -853 -2465 -1907 -53 -235 -65 -352 -65 -672 -1 -306 6 -387
50 -594 92 -433 292 -796 600 -1090 372 -356 855 -564 1469 -633 182 -20 695
-17 855 5 138 19 310 56 439 93 582 169 1089 554 1466 1114 41 62 88 135 103
161 16 30 33 48 42 47 13 -3 15 -82 18 -631 l2 -627 640 0 641 0 -4 2813 c-3
2066 -7 2839 -15 2912 -36 302 -76 519 -137 729 -308 1074 -1073 1651 -2314
1746 -121 9 -587 11 -701 3z m1890 -4580 c0 -241 -5 -494 -10 -563 -48 -655
-277 -1167 -711 -1585 -303 -293 -641 -464 -1064 -541 -174 -31 -471 -43 -646
-25 -561 58 -987 332 -1190 766 -73 154 -119 377 -119 568 0 181 38 436 86
583 126 387 372 602 901 784 281 97 515 145 1093 224 850 117 1337 184 1480
205 69 10 137 19 153 20 l27 1 0 -437z"/>
<path d="M26170 11973 c-404 -28 -652 -65 -986 -148 -340 -84 -636 -191 -939
-340 -163 -80 -416 -222 -443 -248 -9 -10 -12 -152 -10 -664 l3 -652 99 79
c620 496 1268 774 2039 876 159 21 566 30 707 15 622 -64 1037 -379 1251 -948
93 -246 146 -554 165 -944 l6 -137 -29 -6 c-15 -3 -192 -28 -393 -56 -201 -28
-554 -77 -785 -110 -231 -33 -584 -82 -785 -110 -201 -28 -436 -62 -524 -76
-1473 -231 -2301 -914 -2495 -2056 -48 -281 -53 -708 -12 -973 59 -382 194
-708 412 -997 88 -117 285 -311 408 -402 339 -252 740 -402 1231 -462 172 -21
573 -29 740 -15 586 49 1056 231 1477 570 122 98 345 325 442 451 69 89 265
377 273 402 2 6 12 9 21 5 16 -6 17 -54 17 -632 l0 -625 640 0 640 0 0 2703
c0 1687 -4 2762 -10 2862 -103 1648 -914 2516 -2459 2635 -121 9 -587 11 -701
3z m1890 -4570 c0 -565 -16 -768 -80 -1038 -103 -433 -314 -804 -631 -1111
-178 -171 -326 -275 -541 -379 -279 -134 -528 -192 -869 -202 -505 -15 -873
95 -1179 353 -371 313 -508 774 -405 1365 59 340 209 590 450 751 310 208 766
349 1415 438 519 71 739 101 985 135 143 20 375 51 515 70 140 19 262 37 270
39 8 2 27 4 43 5 l27 1 0 -427z"/>
<path d="M19720 7740 c0 -4082 -1 -4202 -36 -4560 -137 -1410 -739 -2114
-1777 -2077 -216 8 -377 42 -605 130 -95 37 -287 131 -380 186 l-52 31 2 -602
3 -601 89 -39 c193 -84 421 -151 631 -183 229 -35 585 -29 875 15 923 140
1600 647 2039 1526 271 543 429 1216 481 2049 6 102 10 1617 10 4173 l0 4012
-640 0 -640 0 0 -4060z"/>
</g>
</svg>
